# xmcd
# 
# Track frame offsets:
#     182
#     26425
#     43815
#     54922
#     66892
#     82797
#     104357
#     114630
#     129037
#     156515
#     187887
#     204517
# 
# Disc length: 3011
# 
# Revision: 1
# Processed by: cddbd v1.5.2PL0 Copyright (c) Steve Scherf et al.
# Submitted via: fre:ac v1.0.17
# 
DISCID=950bc10c
DTITLE=Various Artist - Swinging The Blues 
DYEAR=1995
DGENRE=Blues
TTITLE0=Dire Straits - Sultans Of Swing
TTITLE1=Howlin wolf and Eric Burdon - Little Red Rooster
TTITLE2=John Lee Hooker - This Is Hip
TTITLE3=Buddy Guy - My Love Is Real
TTITLE4=Screamin' jay Hawkins - I Put A Spell On You
TTITLE5=Paul Brady - Nobody Knows
TTITLE6=B B King - Don't Keep Me Waiting
TTITLE7=Robert Cray - I'm Gonna Forget About You
TTITLE8=John Mayall - The Last Time
TTITLE9=Chicago - I'm A Man
TTITLE10=Johnny Winter - Kind Hearted Woman
TTITLE11=Notting Hillbillies - I Feel Like Going Home
EXTD=Charly ST18
EXTT0=Dire Straits
EXTT1=Howlin' Wolf/Eric Clapton
EXTT2=John Lee Hooker
EXTT3=Buddy Guy
EXTT4=Screaming Jay Hawkins
EXTT5=Paul Brady
EXTT6=B.B. King
EXTT7=Robert Cray
EXTT8=John Mayall
EXTT9=Chicago
EXTT10=Johnny Winter
EXTT11=Notting Hillbillies
PLAYORDER=
